<?xml version="1.0" encoding="UTF-8"?>
<svg width="393px" height="321px" viewBox="0 0 393 321" version="1.1" xmlns="http://www.w3.org/2000/svg" xmlns:xlink="http://www.w3.org/1999/xlink">
    <!-- Generator: Sketch 55.1 (78136) - https://sketchapp.com -->
    <title>Fill 148</title>
    <desc>Created with Sketch.</desc>
    <g id="Page-1" stroke="none" stroke-width="1" fill="none" fill-rule="evenodd">
        <g id="metal-home-add-hover" transform="translate(-200.000000, -452.000000)" fill="#00873D">
            <path d="M360,787 L439.9005,712.585106 L490,732.513372 L447.475882,621.473454 L421.907797,621 L360,787 Z M332,828 L416.291698,602.281745 L423.763122,602.42064 L423.763122,445.027688 L419.416043,439.760923 L404.201267,421.319735 L411.970874,411.901122 L408.915916,409.387865 C407.20559,411.097781 405.408997,411.948046 404.671982,411.315509 C403.831822,410.592877 404.690736,408.212884 406.590473,405.999942 C408.486459,403.783245 410.706883,402.57448 411.547043,403.295234 C412.284058,403.927772 411.7177,405.834769 410.292429,407.784936 L413.315505,410.271916 L419.416043,402.878548 L420.507501,401.555287 L417.820114,399.346099 C416.109788,401.056014 414.315071,401.904403 413.578055,401.271865 C412.737895,400.549234 413.594933,398.169241 415.494671,395.954422 C417.392532,393.739602 419.611081,392.530837 420.453116,393.253468 C421.188256,393.886006 420.621898,395.789249 419.194751,397.741293 L421.854008,399.926081 L429.046005,391.21133 L426.722436,389.300579 C425.013986,391.008617 423.217393,391.86076 422.484128,391.228222 C421.640217,390.505591 422.499131,388.125598 424.396993,385.910779 C426.29673,383.697836 428.515278,382.485317 429.357314,383.209825 C430.094329,383.842363 429.526096,385.747483 428.1027,387.69765 L430.390636,389.580247 L434.63457,384.437361 L439.202941,389.974409 L441.382107,388.183784 C439.953084,386.23174 439.386726,384.328497 440.123742,383.695959 C440.965777,382.973328 443.186201,384.18397 445.082187,386.39879 C446.981925,388.611732 447.840838,390.991725 446.998803,391.714357 C446.261787,392.346894 444.46707,391.498505 442.756744,389.78859 L440.549448,391.605493 L447.741444,400.318367 L450.286305,398.227427 C448.859157,396.27726 448.290924,394.370263 449.02794,393.737725 C449.8681,393.018848 452.088523,394.227613 453.98826,396.442433 C455.886122,398.655375 456.743161,401.037245 455.904876,401.758 C455.16786,402.392414 453.371268,401.542149 451.659066,399.830356 L449.086076,401.94945 L449.851222,402.878548 L456.278072,410.666078 L459.190502,408.27107 C457.76148,406.320903 457.195122,404.415783 457.932137,403.783245 C458.772298,403.060614 460.994596,404.273133 462.892458,406.484199 C464.79032,408.700895 465.647359,411.080888 464.807198,411.801643 C464.070183,412.43418 462.27359,411.583915 460.56514,409.875876 L457.622703,412.295285 L465.069748,421.319735 L449.851222,439.760923 L445.506018,445.027688 L445.506018,602.824188 L451.103961,602.929298 L509,753.912413 L440.789494,726.812783 L332,828 Z" id="Fill-148" transform="translate(420.500000, 605.500000) rotate(45.000000) translate(-420.500000, -605.500000) "></path>
        </g>
    </g>
</svg>