<?xml version="1.0" encoding="UTF-8"?>
<svg width="387px" height="523px" viewBox="0 0 387 523" version="1.1" xmlns="http://www.w3.org/2000/svg" xmlns:xlink="http://www.w3.org/1999/xlink">
    <!-- Generator: Sketch 55.1 (78136) - https://sketchapp.com -->
    <title>Fill 165</title>
    <desc>Created with Sketch.</desc>
    <g id="Page-1" stroke="none" stroke-width="1" fill="none" fill-rule="evenodd">
        <g id="metal-home-add-hover" transform="translate(-1029.000000, -471.000000)" fill="#3D138D">
            <path d="M1223.97642,793.095383 C1220.20669,792.809703 1219.96575,791.393829 1215.07413,791.732136 C1205.87316,792.366146 1197.3373,795.473549 1188.9721,799.232505 C1184.43688,801.054346 1185.10951,805.342061 1186.28159,809.860326 C1187.29304,816.428474 1188.29948,822.994117 1189.30591,829.557254 C1190.26968,837.631491 1188.01587,844.420165 1184.48958,850.705139 C1172.1614,873.609709 1159.8307,896.511773 1147.50503,919.413837 C1145.29389,923.220406 1146.01671,926.423036 1150.41641,925.681269 C1186.48237,919.699518 1221.80042,909.735779 1254.86967,887.630613 C1257.66058,885.575718 1258.82011,884.628461 1255.99155,877.784655 C1251.51154,866.595497 1247.02651,855.403833 1242.54148,844.212169 C1239.90367,836.233159 1241.7785,828.271691 1244.55937,818.926927 C1249.34307,803.485137 1254.12426,788.038335 1258.90544,772.596545 C1260.78529,766.797729 1255.45947,766.116105 1250.60801,771.253345 C1244.57192,777.753832 1232.99919,793.76949 1223.97642,793.095383 M1208.41992,444.396721 C1202.89661,444.396721 1198.41992,448.873404 1198.41992,454.39413 C1198.41992,459.914855 1202.89661,464.396721 1208.41992,464.396721 C1213.94065,464.396721 1218.41992,459.914855 1218.41992,454.39413 C1218.41992,448.873404 1213.94065,444.396721 1208.41992,444.396721 M1071.86668,1035.93485 C1064.61589,1036.52864 1065.05982,1033.00598 1067.99675,1027.71698 C1097.03502,972.760002 1126.07579,917.80302 1155.11406,862.843533 C1165.03342,846.204859 1158.80843,803.133719 1152.6963,784.999293 C1150.79519,779.286873 1150.82027,771.472384 1153.24807,767.318353 C1155.13413,764.098853 1159.96213,761.706151 1163.15489,759.902229 C1172.90621,754.410289 1183.47515,749.604842 1193.78075,746.896454 L1193.78075,563.20459 L1194.90186,563.20459 C1193.52744,555.472781 1190.50523,548.627899 1183.62062,543.877572 C1183.64319,540.079314 1183.74853,535.554476 1183.84384,530.573648 L1174.67188,530.573648 L1178.02766,536.521579 L1165.88114,536.521579 L1161.83063,529.340968 L1165.88114,522.162862 L1178.02766,522.162862 L1174.74461,527.988026 L1183.88898,527.988026 C1183.9868,522.288134 1184.05452,516.094669 1183.95169,509.785953 L1174.67188,509.785953 L1178.02766,515.73639 L1165.88114,515.73639 L1161.83063,508.553273 L1165.88114,501.372662 L1178.02766,501.372662 L1174.74461,507.197827 L1183.90403,507.197827 C1183.77863,501.598152 1183.51528,495.955885 1183.02621,490.519065 L1174.67188,490.519065 L1178.02766,496.466997 L1165.88114,496.466997 L1161.83063,489.281374 L1165.88114,482.103269 L1178.02766,482.103269 L1174.74461,487.928433 L1182.7729,487.928433 C1181.61418,476.894444 1179.44471,466.935292 1175.50455,460.345966 C1179.98645,459.737143 1184.2978,458.522001 1188.25551,456.089212 C1192.34364,453.571237 1191.23006,453.859364 1193.1111,450.233982 C1198.77179,439.332782 1217.05551,439.192477 1222.91182,450.191389 C1224.91576,453.959582 1223.40842,453.340736 1227.66459,455.861216 C1231.74268,458.273961 1236.48793,460.092916 1242.13356,461.095095 C1237.65166,465.91307 1235.23139,476.102723 1233.97235,487.928433 L1241.03252,487.928433 L1237.74948,482.103269 L1249.89599,482.103269 L1253.94399,489.281374 L1249.89599,496.466997 L1237.74948,496.466997 L1241.10526,490.519065 L1233.71402,490.519065 C1233.22745,495.910787 1232.95658,501.585625 1232.82616,507.197827 L1241.03252,507.197827 L1237.74948,501.372662 L1249.89599,501.372662 L1253.94399,508.553273 L1249.89599,515.73639 L1237.74948,515.73639 L1241.10526,509.785953 L1232.776,509.785953 C1232.67568,516.162316 1232.7434,522.398374 1232.85877,527.988026 L1241.03252,527.988026 L1237.74948,522.162862 L1249.89599,522.162862 L1253.94399,529.340968 L1249.89599,536.521579 L1237.74948,536.521579 L1241.10526,530.573648 L1232.91395,530.573648 C1233.04687,536.165806 1233.20488,540.978769 1233.26257,544.438792 C1225.64811,548.502627 1222.76385,555.244785 1222.04403,563.20459 L1223.85987,563.20459 L1223.85987,746.778698 C1224.67498,747.076846 1225.47756,747.402554 1226.26509,747.768349 C1233.2124,751.995038 1240.45567,752.085234 1248.04505,747.282292 C1262.96798,731.974011 1277.89341,716.658213 1292.81635,701.349931 C1303.37526,689.336312 1312.18857,693.545464 1309.51749,703.046119 C1301.93313,728.7495 1294.35128,754.452882 1286.76942,780.158769 C1283.0575,791.440797 1279.34809,802.722825 1275.63366,814.004853 C1269.7322,830.615968 1268.23238,847.119347 1274.42477,861.390374 C1281.92888,879.281772 1289.42796,897.168158 1296.92956,915.059556 C1299.59311,922.230145 1302.25416,929.40324 1304.91771,936.576335 C1327.93414,982.684078 1115.36138,1035.44378 1071.86668,1035.93485" id="Fill-165" transform="translate(1188.000000, 739.000000) scale(-1, 1) rotate(23.000000) translate(-1188.000000, -739.000000) "></path>
        </g>
    </g>
</svg>