<?xml version="1.0" encoding="UTF-8"?>
<svg width="293px" height="238px" viewBox="0 0 293 238" version="1.1" xmlns="http://www.w3.org/2000/svg" xmlns:xlink="http://www.w3.org/1999/xlink">
    <!-- Generator: Sketch 55.1 (78136) - https://sketchapp.com -->
    <title>Group 2</title>
    <desc>Created with Sketch.</desc>
    <g id="Page-1" stroke="none" stroke-width="1" fill="none" fill-rule="evenodd">
        <g id="metal-home-add" transform="translate(-384.000000, -680.000000)" fill="#00739D" fill-rule="nonzero">
            <g id="Group-2" transform="translate(384.000000, 680.000000)">
                <path d="M148.850473,201.299605 C148.450473,201.299605 148.050473,201.199605 147.650473,200.999605 C113.450473,183.199605 87.9504729,163.399605 71.9504729,142.199605 C58.4504729,124.299605 51.9504729,105.499605 53.1504729,87.7996047 C54.6504729,65.9996047 68.4504729,46.7996047 87.3504729,39.9996047 C93.1504729,37.8996047 98.8504729,36.8996047 104.450473,36.8996047 C128.550473,36.8996047 143.450473,55.8996047 148.850473,64.0996047 C154.250473,55.7996047 169.150473,36.8996047 193.250473,36.8996047 C198.850473,36.8996047 204.550473,37.8996047 210.350473,39.9996047 C229.350473,46.7996047 243.050473,65.9996047 244.550473,87.7996047 C245.750473,105.499605 239.250473,124.299605 225.750473,142.199605 C209.750473,163.399605 184.250473,183.199605 150.050473,200.999605 C149.650473,201.199605 149.250473,201.299605 148.850473,201.299605 Z M104.550473,41.9996047 C99.5504729,41.9996047 94.3504729,42.8996047 89.1504729,44.7996047 C74.8504729,49.8996047 59.7504729,65.2996047 58.2504729,88.1996047 C57.1504729,104.699605 63.2504729,122.299605 76.0504729,139.199605 C91.4504729,159.499605 115.950473,178.599605 148.950473,195.899605 C181.950473,178.599605 206.450473,159.499605 221.850473,139.199605 C234.650473,122.299605 240.750473,104.699605 239.650473,88.1996047 C238.050473,65.2996047 222.950473,49.8996047 208.750473,44.7996047 C203.550473,42.8996047 198.350473,41.9996047 193.350473,41.9996047 C166.250473,41.9996047 151.350473,69.9996047 151.250473,70.2996047 C150.850473,71.0996047 149.950473,71.5996047 149.050473,71.5996047 C149.050473,71.5996047 149.050473,71.5996047 149.050473,71.5996047 C148.150473,71.5996047 147.250473,71.0996047 146.850473,70.2996047 C146.550473,69.9996047 131.650473,41.9996047 104.550473,41.9996047 Z" id="Shape"></path>
                <path d="M187.850473,88.9996047 C187.150473,88.9996047 186.450473,88.6996047 185.950473,88.0996047 C185.050473,86.9996047 185.150473,85.4996047 186.250473,84.5996047 L259.550473,22.8996047 C260.650473,21.9996047 262.150473,22.0996047 263.050473,23.1996047 C263.950473,24.2996047 263.850473,25.7996047 262.750473,26.6996047 L189.450473,88.3996047 C189.050473,88.7996047 188.450473,88.9996047 187.850473,88.9996047 Z" id="Path"></path>
                <path d="M261.550473,50.9996047 C261.350473,50.9996047 261.150473,50.9996047 260.850473,50.8996047 C259.750473,50.5996047 259.050473,49.5996047 259.050473,48.4996047 L258.750473,26.5996047 L238.650473,19.4996047 C237.650473,19.0996047 236.950473,18.1996047 236.950473,17.0996047 C236.950473,15.9996047 237.750473,15.0996047 238.750473,14.7996047 L289.150473,0.0996047292 C290.150473,-0.200395271 291.250473,0.199604729 291.850473,0.999604729 C292.450473,1.79960473 292.550473,2.89960473 291.950473,3.79960473 L263.550473,49.7996047 C263.150473,50.4996047 262.350473,50.9996047 261.550473,50.9996047 Z" id="Path"></path>
                <path d="M247.650473,17.3996047 L262.050473,22.4996047 C263.050473,22.7996047 263.750473,23.7996047 263.750473,24.7996047 L263.950473,39.8996047 L284.350473,6.79960473 L247.650473,17.3996047 Z" id="Path"></path>
                <path d="M188.850473,101.799605 C188.650473,101.799605 188.450473,101.799605 188.250473,101.699605 C186.950473,101.399605 186.050473,99.9996047 186.350473,98.6996047 C187.250473,94.5996047 186.850473,91.3996047 184.950473,88.9996047 C181.350473,84.2996047 173.250473,83.9996047 173.150473,83.9996047 C171.750473,83.9996047 170.650473,82.7996047 170.750473,81.3996047 C170.750473,79.9996047 171.850473,78.8996047 173.350473,78.9996047 C173.750473,78.9996047 183.750473,79.2996047 188.950473,85.9996047 C191.750473,89.5996047 192.550473,94.2996047 191.250473,99.8996047 C191.050473,100.999605 190.050473,101.799605 188.850473,101.799605 Z" id="Path"></path>
                <path d="M41.5504729,205.299605 C40.7504729,205.299605 40.0504729,204.999605 39.5504729,204.299605 C38.7504729,203.199605 38.9504729,201.599605 40.0504729,200.799605 L93.5504729,160.599605 C94.6504729,159.799605 96.2504729,159.999605 97.0504729,161.099605 C97.8504729,162.199605 97.6504729,163.799605 96.5504729,164.599605 L43.0504729,204.799605 C42.6504729,205.099605 42.1504729,205.299605 41.5504729,205.299605 Z" id="Path"></path>
                <path d="M40.9504729,237.599605 C40.5504729,237.599605 40.1504729,237.499605 39.7504729,237.299605 C38.9504729,236.799605 38.4504729,235.899605 38.4504729,234.999605 L40.2504729,201.799605 C40.2504729,201.099605 40.6504729,200.399605 41.2504729,199.899605 L77.8504729,172.399605 C78.6504729,171.799605 79.6504729,171.699605 80.5504729,172.199605 C81.4504729,172.699605 81.9504729,173.599605 81.8504729,174.599605 L78.8504729,210.499605 C78.7504729,211.199605 78.3504729,211.899605 77.7504729,212.299605 L42.3504729,236.999605 C41.9504729,237.399605 41.4504729,237.599605 40.9504729,237.599605 Z" id="Path"></path>
                <polygon id="Path" points="45.2504729 203.199605 43.7504729 230.099605 74.0504729 208.999605 76.4504729 179.799605"></polygon>
                <path d="M42.7504729,204.399605 C42.6504729,204.399605 42.5504729,204.399605 42.4504729,204.399605 L2.15047288,199.199605 C1.15047288,199.099605 0.250472885,198.299605 0.0504728849,197.299605 C-0.149527115,196.299605 0.250472885,195.199605 1.15047288,194.599605 L45.9504729,166.599605 C46.4504729,166.299605 47.1504729,166.099605 47.7504729,166.299605 L79.8504729,171.999605 C80.8504729,172.199605 81.6504729,172.899605 81.8504729,173.899605 C82.0504729,174.899605 81.7504729,175.899605 80.9504729,176.499605 L44.3504729,203.999605 C43.8504729,204.199605 43.3504729,204.399605 42.7504729,204.399605 Z" id="Path"></path>
                <polygon id="Path" points="9.75047288 195.099605 42.0504729 199.299605 73.2504729 175.899605 47.7504729 171.299605"></polygon>
                <path d="M50.9504729,230.599605 C50.9504729,230.599605 50.8504729,230.599605 50.8504729,230.599605 C49.4504729,230.499605 48.4504729,229.399605 48.4504729,227.999605 L50.0504729,194.499605 C50.1504729,193.099605 51.2504729,192.099605 52.6504729,192.099605 C54.0504729,192.199605 55.0504729,193.299605 55.0504729,194.699605 L53.4504729,228.199605 C53.3504729,229.499605 52.2504729,230.599605 50.9504729,230.599605 Z" id="Path"></path>
                <path d="M60.1504729,224.199605 C60.1504729,224.199605 60.1504729,224.199605 60.1504729,224.199605 C58.7504729,224.199605 57.6504729,222.999605 57.6504729,221.599605 L58.3504729,188.199605 C58.3504729,186.799605 59.5504729,185.699605 60.9504729,185.799605 C62.3504729,185.799605 63.4504729,186.999605 63.3504729,188.399605 L62.6504729,221.799605 C62.6504729,223.099605 61.4504729,224.199605 60.1504729,224.199605 Z" id="Path"></path>
                <path d="M68.3504729,218.399605 C68.3504729,218.399605 68.2504729,218.399605 68.3504729,218.399605 C66.8504729,218.399605 65.8504729,217.199605 65.8504729,215.799605 L66.9504729,182.499605 C66.9504729,181.099605 68.1504729,179.999605 69.5504729,180.099605 C70.9504729,180.099605 72.0504729,181.299605 71.9504729,182.699605 L70.8504729,215.999605 C70.7504729,217.399605 69.6504729,218.399605 68.3504729,218.399605 Z" id="Path"></path>
                <path d="M52.5504729,196.999605 C52.4504729,196.999605 52.3504729,196.999605 52.1504729,196.999605 L14.0504729,191.599605 C12.6504729,191.399605 11.7504729,190.099605 11.9504729,188.799605 C12.1504729,187.399605 13.3504729,186.499605 14.7504729,186.699605 L52.8504729,192.099605 C54.2504729,192.299605 55.1504729,193.599605 54.9504729,194.899605 C54.8504729,196.099605 53.7504729,196.999605 52.5504729,196.999605 Z" id="Path"></path>
                <path d="M62.0504729,189.899605 C61.9504729,189.899605 61.7504729,189.899605 61.6504729,189.899605 L25.7504729,184.399605 C24.3504729,184.199605 23.4504729,182.899605 23.6504729,181.499605 C23.8504729,180.099605 25.1504729,179.199605 26.5504729,179.399605 L62.4504729,184.899605 C63.8504729,185.099605 64.7504729,186.399605 64.5504729,187.799605 C64.3504729,188.999605 63.2504729,189.899605 62.0504729,189.899605 Z" id="Path"></path>
                <path d="M69.4504729,182.399605 C69.3504729,182.399605 69.1504729,182.399605 69.0504729,182.399605 L37.6504729,176.899605 C36.2504729,176.699605 35.3504729,175.399605 35.6504729,173.999605 C35.9504729,172.599605 37.1504729,171.699605 38.5504729,171.999605 L69.9504729,177.499605 C71.3504729,177.699605 72.2504729,178.999605 71.9504729,180.399605 C71.7504729,181.499605 70.6504729,182.399605 69.4504729,182.399605 Z" id="Path"></path>
            </g>
        </g>
    </g>
</svg>