<?xml version="1.0" encoding="UTF-8"?>
<svg width="43px" height="60px" viewBox="0 0 43 60" version="1.1" xmlns="http://www.w3.org/2000/svg" xmlns:xlink="http://www.w3.org/1999/xlink">
    <!-- Generator: Sketch 55.1 (78136) - https://sketchapp.com -->
    <title>Group</title>
    <desc>Created with Sketch.</desc>
    <g id="Page-1" stroke="none" stroke-width="1" fill="none" fill-rule="evenodd">
        <g id="metal-home-add-hover" transform="translate(-48.000000, -48.000000)" fill="#FFAA15" fill-rule="nonzero">
            <g id="Group" transform="translate(48.000000, 48.000000)">
                <path d="M26.9175563,39.5481818 C23.9093745,39.5481818 21.4630108,37.1018182 21.4630108,34.0936364 L21.4630108,19.0936364 C21.4630108,16.0854545 23.9093745,13.6390909 26.9175563,13.6390909 C29.9257381,13.6390909 32.3721017,16.0854545 32.3721017,19.0936364 L32.3721017,34.0936364 C32.3721017,37.1018182 29.9257381,39.5481818 26.9175563,39.5481818 Z M26.9175563,16.3663636 C25.4121017,16.3663636 24.1902836,17.5881818 24.1902836,19.0936364 L24.1902836,34.0936364 C24.1902836,35.5990909 25.4121017,36.8209091 26.9175563,36.8209091 C28.4230108,36.8209091 29.644829,35.5990909 29.644829,34.0936364 L29.644829,19.0909091 C29.644829,17.5881818 28.4230108,16.3663636 26.9175563,16.3663636 Z" id="Shape"></path>
                <path d="M18.7357381,39.5481818 C18.1357381,39.5481818 17.5411926,39.4418182 16.9166472,39.2209091 C16.3739199,39.0272727 16.0084654,38.5118182 16.0084654,37.9336364 L16.0084654,36.8209091 C16.0084654,36.5727273 16.0739199,36.33 16.2021017,36.12 L20.2930108,29.3018182 C21.9021017,26.5090909 19.6111926,24.6272727 18.0975563,23.7572727 C17.0911926,23.1736364 16.0684654,23.04 15.0675563,23.3727273 C14.6502836,23.5090909 14.1975563,23.4354545 13.8430108,23.1818182 C13.4911926,22.9227273 13.2811926,22.5081818 13.2811926,22.0745455 L13.2811926,19.0936364 C13.2811926,16.0854545 15.7275563,13.6390909 18.7357381,13.6390909 C21.7439199,13.6390909 24.1902836,16.0854545 24.1902836,19.0936364 L24.1902836,34.0936364 C24.1902836,37.1018182 21.7439199,39.5481818 18.7357381,39.5481818 Z M21.4630108,32.6509091 L18.9675563,36.8072727 C20.3639199,36.69 21.4630108,35.5145455 21.4630108,34.0909091 L21.4630108,32.6509091 Z M16.1584654,20.4681818 C17.2875563,20.4681818 18.4002836,20.7790909 19.4639199,21.3954545 C20.2275563,21.8345455 20.8984654,22.3336364 21.4630108,22.8790909 L21.4630108,19.0936364 C21.4630108,17.5881818 20.2411926,16.3663636 18.7357381,16.3663636 C17.2302836,16.3663636 16.0084654,17.5881818 16.0084654,19.0936364 L16.0084654,20.4709091 C16.0602836,20.4681818 16.1066472,20.4681818 16.1584654,20.4681818 Z" id="Shape"></path>
                <path d="M31.0084654,60 L11.9175563,60 C11.164829,60 10.5539199,59.3890909 10.5539199,58.6363636 L10.5539199,51.2209091 C5.34210173,47.9263636 2.37210173,42.72 2.37210173,36.8181818 L2.37210173,34.0909091 L0.0184653704,5.90454545 C-0.106989175,4.38818182 0.411192643,2.88 1.43937446,1.75909091 C2.46755628,0.643636364 3.92937446,0 5.44846537,0 C8.29301082,0 10.624829,2.13818182 10.8757381,4.97181818 L12.3511926,21.7363636 C12.6484654,21.5181818 12.9621017,21.3272727 13.2811926,21.1636364 L13.2811926,19.0909091 C13.2811926,16.0827273 15.7275563,13.6363636 18.7357381,13.6363636 C20.3639199,13.6363636 21.8257381,14.3536364 22.8266472,15.4881818 C23.8275563,14.3536364 25.2893745,13.6363636 26.9175563,13.6363636 C28.7093745,13.6363636 30.3021017,14.5036364 31.2975563,15.8454545 L32.0393745,7.66636364 C32.2957381,4.85181818 34.6166472,2.72727273 37.4421017,2.72727273 C38.9830108,2.72727273 40.4475563,3.37090909 41.4730108,4.49454545 C42.4984654,5.61545455 43.0084654,7.12909091 42.8721017,8.64272727 L40.5457381,34.2109091 L40.5539199,42.2727273 C40.5539199,47.6045455 37.1721017,52.4481818 32.3721017,54.1854545 L32.3721017,58.6363636 C32.3721017,59.3918182 31.7611926,60 31.0084654,60 Z M13.2811926,57.2727273 L29.644829,57.2727273 L29.644829,53.1818182 C29.644829,52.56 30.064829,52.0172727 30.6675563,51.8618182 C34.7475563,50.8036364 37.8266472,46.6827273 37.8266472,42.2727273 L37.8266472,34.0909091 L40.1557381,8.4 C40.2239199,7.63636364 39.9784654,6.9 39.4602836,6.33272727 C38.9421017,5.76545455 38.2330108,5.45454545 37.4666472,5.45454545 C36.0402836,5.45454545 34.8839199,6.51 34.7584654,7.90909091 L32.3666472,34.2136364 C32.3039199,34.92 31.7121017,35.4545455 31.0084654,35.4545455 C30.9893745,35.4545455 30.9675563,35.4545455 30.9484654,35.4518182 C30.2175563,35.4190909 29.644829,34.8218182 29.644829,34.0909091 L29.644829,19.0909091 C29.644829,17.5854545 28.4230108,16.3636364 26.9175563,16.3636364 C25.4121017,16.3636364 24.1902836,17.5854545 24.1902836,19.0909091 C24.1902836,19.8436364 23.5793745,20.4545455 22.8266472,20.4545455 C22.0739199,20.4545455 21.4630108,19.8436364 21.4630108,19.0909091 C21.4630108,17.5854545 20.2411926,16.3636364 18.7357381,16.3636364 C17.2302836,16.3636364 16.0084654,17.5854545 16.0084654,19.0909091 L16.0084654,22.0745455 C16.0084654,22.6636364 15.6293745,23.1872727 15.0702836,23.3727273 C14.0611926,23.7 13.1421017,24.4854545 12.4139199,25.6336364 C12.1002836,26.1272727 11.5084654,26.3590909 10.9384654,26.2309091 C10.3711926,26.0918182 9.95391992,25.6063636 9.90210173,25.0254545 L8.15664719,5.21454545 C8.03119264,3.79636364 6.86391992,2.73 5.4457381,2.73 C4.67664719,2.73 3.96482901,3.04090909 3.44391992,3.60818182 C2.92301082,4.17545455 2.66937446,4.91454545 2.73210173,5.67818182 L5.09119264,33.9818182 L5.09937446,36.8209091 C5.09937446,42.0518182 7.76391992,46.4754545 12.6021017,49.2763636 C13.0221017,49.5218182 13.2811926,49.9690909 13.2811926,50.4572727 L13.2811926,57.2727273 Z" id="Shape"></path>
                <path d="M17.3721017,42.2727273 C16.6193745,42.2727273 16.0084654,41.6618182 16.0084654,40.9090909 L16.0084654,36.4390909 L20.2930108,29.2990909 C21.9021017,26.5063636 19.6111926,24.6245455 18.0975563,23.7545455 C15.5393745,22.2736364 13.3930108,23.8909091 12.2366472,25.8845455 L4.92210173,38.8827273 C4.54846537,39.54 3.71119264,39.7663636 3.06482901,39.4009091 C2.40755628,39.0327273 2.1757381,38.2009091 2.54664719,37.5436364 L9.86937446,24.5318182 C12.0866472,20.6945455 16.0330108,19.4018182 19.4639199,21.39 C23.3584654,23.6345455 24.604829,27.2809091 22.6466472,30.6790909 L18.7357381,37.1972727 L18.7357381,40.9090909 C18.7357381,41.6645455 18.124829,42.2727273 17.3721017,42.2727273 Z" id="Path"></path>
            </g>
        </g>
    </g>
</svg>